<svg width="32" height="32" viewBox="0 0 32 32" xmlns="http://www.w3.org/2000/svg">
  <!-- Based on your actual logo design -->
  
  <!-- Circular border -->
  <circle cx="16" cy="16" r="15" fill="none" stroke="#C8A882" stroke-width="1.2" opacity="0.9"/>
  
  <!-- Mortar bowl (main vessel) -->
  <ellipse cx="16" cy="19" rx="7" ry="5" fill="#C8A882" opacity="0.8"/>
  <ellipse cx="16" cy="18" rx="6" ry="4" fill="#D4B896" opacity="0.7"/>
  
  <!-- Mortar base/stand -->
  <ellipse cx="16" cy="23" rx="5" ry="2" fill="#C8A882" opacity="0.9"/>
  
  <!-- Pestle -->
  <rect x="20" y="9" width="2" height="10" rx="1" fill="#C8A882" opacity="0.8" transform="rotate(25 21 14)"/>
  <ellipse cx="22" cy="10" rx="2" ry="1.5" fill="#C8A882" opacity="0.8" transform="rotate(25 22 10)"/>
  
  <!-- Steam/magical wisps -->
  <path d="M13 11 Q13 9 14 9 Q14 11 15 9 Q15 11 16 9" stroke="#C8A882" stroke-width="1" fill="none" opacity="0.7"/>
  <path d="M15 12 Q15 10 16 10 Q16 12 17 10 Q17 12 18 10" stroke="#C8A882" stroke-width="0.8" fill="none" opacity="0.6"/>
  <path d="M17 11 Q17 9 18 9 Q18 11 19 9" stroke="#C8A882" stroke-width="0.6" fill="none" opacity="0.5"/>
  
  <!-- Decorative herbs/botanical elements -->
  <path d="M7 16 Q8 15 9 16 Q8 17 7 16 M6 17 Q7 16 8 17" stroke="#C8A882" stroke-width="0.8" fill="none" opacity="0.6"/>
  <path d="M25 16 Q24 15 23 16 Q24 17 25 16 M26 17 Q25 16 24 17" stroke="#C8A882" stroke-width="0.8" fill="none" opacity="0.6"/>
  
  <!-- Letter symbols from your logo -->
  <text x="11" y="8" font-family="serif" font-size="3" fill="#C8A882" opacity="0.7">A</text>
  <text x="21" y="25" font-family="serif" font-size="3" fill="#C8A882" opacity="0.7">C</text>
  
  <!-- Mystical symbols -->
  <path d="M9 24 L9.5 23.5 L10 24 L9.5 24.5 Z" fill="#C8A882" opacity="0.6"/>
  <path d="M23 8 L22.5 7.5 L22 8 L22.5 8.5 Z" fill="#C8A882" opacity="0.6"/>
  
  <!-- Small decorative dots -->
  <circle cx="12" cy="13" r="0.5" fill="#C8A882" opacity="0.7"/>
  <circle cx="20" cy="13" r="0.5" fill="#C8A882" opacity="0.7"/>
</svg>
